<svg width="800" height="560" viewBox="0 0 800 560" fill="none" xmlns="http://www.w3.org/2000/svg">
  <defs>
    <linearGradient id="bg" x1="120" y1="40" x2="680" y2="520" gradientUnits="userSpaceOnUse">
      <stop stop-color="#1F2A44" />
      <stop offset="0.5" stop-color="#1B2240" />
      <stop offset="1" stop-color="#101628" />
    </linearGradient>
    <linearGradient id="accent" x1="0" y1="0" x2="160" y2="180" gradientUnits="userSpaceOnUse">
      <stop stop-color="#48E1B4" />
      <stop offset="1" stop-color="#30B0F1" />
    </linearGradient>
    <linearGradient id="card" x1="0" y1="0" x2="260" y2="200" gradientUnits="userSpaceOnUse">
      <stop stop-color="#202B45" />
      <stop offset="1" stop-color="#1A2238" />
    </linearGradient>
  </defs>
  <rect x="24" y="24" width="752" height="512" rx="32" fill="url(#bg)" />
  <rect x="64" y="80" width="672" height="72" rx="20" fill="#131A2A" />
  <rect x="96" y="112" width="164" height="16" rx="8" fill="#8FA2D2" />
  <rect x="300" y="112" width="108" height="16" rx="8" fill="#304B85" />
  <rect x="436" y="112" width="136" height="16" rx="8" fill="#304B85" />
  <rect x="592" y="104" width="112" height="32" rx="10" fill="url(#accent)" />
  <rect x="64" y="184" width="312" height="288" rx="24" fill="url(#card)" />
  <rect x="420" y="184" width="316" height="132" rx="24" fill="url(#card)" />
  <rect x="420" y="340" width="316" height="132" rx="24" fill="url(#card)" />
  <rect x="88" y="208" width="112" height="112" rx="20" fill="#151C2E" />
  <circle cx="144" cy="264" r="36" fill="url(#accent)" />
  <rect x="220" y="216" width="132" height="16" rx="8" fill="#8FA2D2" />
  <rect x="220" y="244" width="102" height="12" rx="6" fill="#6777A9" />
  <rect x="220" y="268" width="124" height="12" rx="6" fill="#2C3E64" />
  <rect x="220" y="292" width="140" height="12" rx="6" fill="#2C3E64" />
  <rect x="88" y="344" width="256" height="20" rx="10" fill="#151C2E" />
  <rect x="88" y="372" width="256" height="20" rx="10" fill="#151C2E" />
  <rect x="88" y="400" width="180" height="20" rx="10" fill="#151C2E" />
  <rect x="88" y="436" width="96" height="32" rx="12" fill="url(#accent)" opacity="0.8" />
  <rect x="420" y="208" width="94" height="12" rx="6" fill="#8FA2D2" />
  <rect x="530" y="208" width="82" height="12" rx="6" fill="#2C3E64" />
  <rect x="624" y="208" width="82" height="12" rx="6" fill="#2C3E64" />
  <rect x="436" y="240" width="180" height="12" rx="6" fill="#151C2E" />
  <rect x="436" y="264" width="248" height="12" rx="6" fill="#151C2E" />
  <rect x="436" y="288" width="208" height="12" rx="6" fill="#151C2E" />
  <rect x="420" y="364" width="94" height="12" rx="6" fill="#8FA2D2" />
  <rect x="530" y="364" width="82" height="12" rx="6" fill="#2C3E64" />
  <rect x="624" y="364" width="82" height="12" rx="6" fill="#2C3E64" />
  <rect x="436" y="396" width="180" height="12" rx="6" fill="#151C2E" />
  <rect x="436" y="420" width="248" height="12" rx="6" fill="#151C2E" />
  <rect x="436" y="444" width="184" height="12" rx="6" fill="#151C2E" />
  <rect x="604" y="420" width="98" height="32" rx="12" fill="url(#accent)" opacity="0.8" />
</svg>
